   <svg width="40" height="40" viewBox="0 0 40 40" fill="none" xmlns="http://www.w3.org/2000/svg">
            <circle cx="20" cy="20" r="20" fill="#69B7FF"/>
            <path d="M10 19.5C10 18.9477 10.4477 18.5 11 18.5H30C30.5523 18.5 31 18.9477 31 19.5C31 20.0523 30.5523 20.5 30 20.5H11C10.4477 20.5 10 20.0523 10 19.5Z" fill="white"/>
            <path d="M20.5 9C21.0523 9 21.5 9.44772 21.5 10L21.5 29C21.5 29.5523 21.0523 30 20.5 30C19.9477 30 19.5 29.5523 19.5 29L19.5 10C19.5 9.44772 19.9477 9 20.5 9Z" fill="white"/>
            </svg>